<mxfile host="65bd71144e">
    <diagram id="fk4MwttXCtmGVCTiV00E" name="Page-1">
        <mxGraphModel dx="2507" dy="1151" grid="1" gridSize="10" guides="1" tooltips="1" connect="1" arrows="1" fold="1" page="1" pageScale="1" pageWidth="827" pageHeight="1169" math="0" shadow="0">
            <root>
                <mxCell id="0"/>
                <mxCell id="1" parent="0"/>
                <mxCell id="23" value="" style="rounded=0;whiteSpace=wrap;html=1;fontFamily=Verdana;fontSize=16;fillColor=none;strokeWidth=3;" vertex="1" parent="1">
                    <mxGeometry y="420" width="790" height="320" as="geometry"/>
                </mxCell>
                <mxCell id="3" value="Team&lt;br style=&quot;font-size: 14px;&quot;&gt;Leader" style="shape=umlActor;verticalLabelPosition=bottom;verticalAlign=top;html=1;outlineConnect=0;strokeWidth=3;fontFamily=Verdana;fontSize=14;" parent="1" vertex="1">
                    <mxGeometry x="70" y="80" width="30" height="60" as="geometry"/>
                </mxCell>
                <mxCell id="4" value="Bot" style="sketch=0;outlineConnect=0;dashed=0;verticalLabelPosition=bottom;verticalAlign=top;align=center;html=1;fontSize=14;fontStyle=0;aspect=fixed;pointerEvents=1;shape=mxgraph.aws4.waf_bot;fillColor=#000000;fontColor=#333333;strokeColor=#666666;fontFamily=Verdana;" parent="1" vertex="1">
                    <mxGeometry x="336" y="110" width="78" height="78" as="geometry"/>
                </mxCell>
                <mxCell id="6" value="NEW&lt;br style=&quot;font-size: 16px;&quot;&gt;RETROSPECTIVE&lt;br style=&quot;font-size: 16px;&quot;&gt;ROOM" style="shape=flexArrow;endArrow=classic;html=1;strokeWidth=2;fontFamily=Verdana;fontSize=16;" parent="1" source="3" target="4" edge="1">
                    <mxGeometry width="50" height="50" relative="1" as="geometry">
                        <mxPoint x="330" y="460" as="sourcePoint"/>
                        <mxPoint x="380" y="410" as="targetPoint"/>
                    </mxGeometry>
                </mxCell>
                <mxCell id="7" value="Team&lt;br style=&quot;font-size: 14px;&quot;&gt;Member 1" style="shape=umlActor;verticalLabelPosition=bottom;verticalAlign=top;html=1;outlineConnect=0;strokeWidth=3;fontFamily=Verdana;fontSize=14;" parent="1" vertex="1">
                    <mxGeometry x="680" y="80" width="30" height="60" as="geometry"/>
                </mxCell>
                <mxCell id="9" value="Team&lt;br style=&quot;font-size: 14px;&quot;&gt;Member 2" style="shape=umlActor;verticalLabelPosition=bottom;verticalAlign=top;html=1;outlineConnect=0;strokeWidth=3;fontFamily=Verdana;fontSize=14;" parent="1" vertex="1">
                    <mxGeometry x="620" y="240" width="30" height="60" as="geometry"/>
                </mxCell>
                <mxCell id="14" value="Team&lt;br style=&quot;font-size: 14px;&quot;&gt;Leader" style="shape=umlActor;verticalLabelPosition=bottom;verticalAlign=top;html=1;outlineConnect=0;strokeWidth=3;fontFamily=Verdana;fontSize=14;" vertex="1" parent="1">
                    <mxGeometry x="70" y="530" width="30" height="60" as="geometry"/>
                </mxCell>
                <mxCell id="15" value="Bot" style="sketch=0;outlineConnect=0;dashed=0;verticalLabelPosition=bottom;verticalAlign=top;align=center;html=1;fontSize=14;fontStyle=0;aspect=fixed;pointerEvents=1;shape=mxgraph.aws4.waf_bot;fillColor=#000000;fontColor=#333333;strokeColor=#666666;fontFamily=Verdana;" vertex="1" parent="1">
                    <mxGeometry x="336" y="500" width="78" height="78" as="geometry"/>
                </mxCell>
                <mxCell id="17" value="Team&lt;br style=&quot;font-size: 14px;&quot;&gt;Member 1" style="shape=umlActor;verticalLabelPosition=bottom;verticalAlign=top;html=1;outlineConnect=0;strokeWidth=3;fontFamily=Verdana;fontSize=14;" vertex="1" parent="1">
                    <mxGeometry x="680" y="470" width="30" height="60" as="geometry"/>
                </mxCell>
                <mxCell id="18" value="JOIN ROOM" style="shape=flexArrow;endArrow=classic;html=1;strokeWidth=2;fontFamily=Verdana;fontSize=16;" edge="1" parent="1" source="17" target="15">
                    <mxGeometry width="50" height="50" relative="1" as="geometry">
                        <mxPoint x="60" y="549" as="sourcePoint"/>
                        <mxPoint x="346" y="549" as="targetPoint"/>
                    </mxGeometry>
                </mxCell>
                <mxCell id="19" value="Team&lt;br style=&quot;font-size: 14px;&quot;&gt;Member 2" style="shape=umlActor;verticalLabelPosition=bottom;verticalAlign=top;html=1;outlineConnect=0;strokeWidth=3;fontFamily=Verdana;fontSize=14;" vertex="1" parent="1">
                    <mxGeometry x="620" y="630" width="30" height="60" as="geometry"/>
                </mxCell>
                <mxCell id="20" value="JOIN ROOM" style="shape=flexArrow;endArrow=classic;html=1;strokeWidth=2;fontFamily=Verdana;fontSize=16;" edge="1" parent="1" source="19" target="15">
                    <mxGeometry width="50" height="50" relative="1" as="geometry">
                        <mxPoint x="690" y="511.828125" as="sourcePoint"/>
                        <mxPoint x="424" y="544.246875" as="targetPoint"/>
                    </mxGeometry>
                </mxCell>
                <mxCell id="21" value="The ROOM has this CODE" style="shape=callout;whiteSpace=wrap;html=1;perimeter=calloutPerimeter;fontFamily=Verdana;fontSize=16;" vertex="1" parent="1">
                    <mxGeometry x="40" y="440" width="120" height="80" as="geometry"/>
                </mxCell>
                <mxCell id="22" value="" style="rounded=0;whiteSpace=wrap;html=1;fontFamily=Verdana;fontSize=16;fillColor=none;strokeWidth=3;" vertex="1" parent="1">
                    <mxGeometry y="40" width="790" height="320" as="geometry"/>
                </mxCell>
            </root>
        </mxGraphModel>
    </diagram>
</mxfile>